<?xml version="1.0" encoding="UTF-8"?>
<svg id="Layer_1" data-name="Layer 1" xmlns="http://www.w3.org/2000/svg" viewBox="0 0 684.89 266.28">
  <defs>
    <style>
      .cls-1 {
        fill: #231f20;
        stroke-width: 0px;
      }
    </style>
  </defs>
  <path class="cls-1" d="M65.72,93.19H18.93v-24.02h127.84v24.02h-46.79v102.06h-34.26v-102.06Z"/>
  <polygon class="cls-1" points="155.82 117.84 155.82 141.96 192.35 141.96 192.35 141.98 259.36 141.98 264.09 117.84 155.82 117.84"/>
  <polygon class="cls-1" points="155.82 171.34 155.82 195.46 192.35 195.46 192.35 195.48 248.86 195.48 253.6 171.34 155.82 171.34"/>
  <polygon class="cls-1" points="273.6 69.17 155.82 69.17 155.82 93.29 192.35 93.29 192.35 93.31 268.9 93.31 273.6 69.32 273.6 69.17"/>
  <path class="cls-1" d="M365.03,107.69c-2.12-15.78-17.83-17.48-31.61-17.48s-23.31,6.11-23.31,14.25c0,6.45,5.65,10.01,14.48,11.37l42.91,6.62c22.96,3.56,40.44,11.88,40.44,33.93s-15.89,40.72-65.51,40.72c-30.73,0-70.63-3.73-70.99-41.57h38.5c.35,16.63,17.66,19.51,32.49,19.51,16.07,0,27.02-4.58,27.02-15.1,0-9.33-7.77-11.88-21.37-13.91l-31.26-4.58c-21.9-3.22-43.08-9.5-43.08-34.27,0-26.98,22.96-38.01,62.51-38.01,25.96,0,64.45,4.24,66.75,38.52h-37.96Z"/>
  <path class="cls-1" d="M604.82,169.29h-57.92l-10.24,25.96h-36.91l55.45-126.08h41.32l55.45,126.08h-36.91l-10.24-25.96ZM575.86,96.37l-19.78,49.97h39.55l-19.78-49.97Z"/>
  <polygon class="cls-1" points="533.24 69.17 408.71 69.17 408.71 93.19 455.5 93.19 455.5 195.25 455.52 195.25 455.52 195.36 489.76 195.36 489.76 168.07 489.76 168.07 489.76 93.19 522.69 93.19 532.99 69.77 532.98 69.77 533.24 69.17"/>
</svg>